<?xml version="1.0" encoding="UTF-8"?>
<svg id="Layer_1" xmlns="http://www.w3.org/2000/svg" viewBox="0 0 246.72 575.81">
  <defs>
    <style>
      .cls-1 {
        fill: #fff;
      }
    </style>
  </defs>
  <g id="kl2Gag.tif">
    <g>
      <path class="cls-1" d="M144.82,317.28v123.15c0,9.01,8.19,16.78,15.85,20.12,11.41,4.96,24.75,7.86,36.22,12.73,1.8.76,3.39,1.59,4.86,2.88v-158.88h32.46l.02,209.61c2.07,43.35-40.05,51.75-74.67,48.19-20.08-2.07-46.69-14.5-46.69-38.22v-15.24h31.96c-1.51,14.21,6.77,23.63,20.79,24.92,12.55,1.15,34.52-.41,36.14-16.68,1.17-11.79-.21-21.4-11.8-26.65-16.15-7.32-35.29-11.43-51.74-18.18-12.35-5.06-25.34-20.25-25.34-34.1v-133.65h31.96Z"/>
      <path class="cls-1" d="M163.71,144.54c57.98-.43,103.43,60.64,73.58,114.63-29.71,53.73-107.48,46.94-137.12-2.87s6.14-111.33,63.54-111.75ZM168.18,177.04c-39.08,1.27-59.13,60.27-22.2,81.37,47.55,27.17,87.29-44.91,47.93-72.94-7.25-5.16-16.75-8.73-25.73-8.44Z"/>
      <path class="cls-1" d="M130.84,6.03l-11.49,30.47c-3.23-.69-6.59-2.34-9.85-2.88-27.53-4.62-31.45,22.82-34.04,43.3l36.35,7.75-15.01,30.2-27.87-4.9-29.98,157.87-35.46-6.5L45.09,44.39C54.93,7.61,82.83-6.39,119.45,2.67c3.84.95,7.5,2.57,11.38,3.36Z"/>
      <rect class="cls-1" y="301.8" width="36.95" height="268.79"/>
      <rect class="cls-1" x="52.93" y="301.8" width="36.95" height="268.79"/>
    </g>
  </g>
</svg>